<?xml version="1.0" standalone="no"?>
<!DOCTYPE svg PUBLIC "-//W3C//DTD SVG 20010904//EN"
 "http://www.w3.org/TR/2001/REC-SVG-20010904/DTD/svg10.dtd">
<svg version="1.0" xmlns="http://www.w3.org/2000/svg"
 width="1024.000000pt" height="1024.000000pt" viewBox="0 0 1024.000000 1024.000000"
 preserveAspectRatio="xMidYMid meet">

<g transform="translate(0.000000,1024.000000) scale(0.100000,-0.100000)"
fill="#000000" stroke="none">
<path d="M0 5120 l0 -5120 5120 0 5120 0 0 5120 0 5120 -5120 0 -5120 0 0
-5120z m5593 2536 c119 -51 138 -134 392 -1806 75 -490 88 -560 105 -560 18 0
30 41 80 281 183 877 234 1021 369 1044 80 13 141 -21 256 -144 45 -47 88 -83
120 -98 l50 -23 521 0 521 0 35 -95 36 -95 -572 0 c-702 0 -676 -4 -817 141
-42 44 -83 79 -91 79 -19 0 -41 -26 -56 -65 -16 -43 -82 -312 -142 -580 -85
-381 -110 -487 -132 -555 -51 -160 -97 -206 -195 -198 -49 4 -61 10 -89 41
-67 73 -94 200 -229 1077 -109 713 -189 1192 -204 1233 -6 15 -15 27 -20 27
-14 0 -25 -42 -86 -335 -102 -488 -144 -655 -185 -736 -25 -48 -90 -105 -137
-119 -21 -6 -134 -14 -250 -17 l-212 -6 -10 -31 c-5 -17 -28 -103 -51 -191
-118 -457 -155 -534 -263 -550 -86 -13 -140 31 -192 155 -74 175 -131 371
-417 1427 -33 121 -51 158 -67 134 -5 -7 -32 -97 -61 -200 -143 -510 -224
-678 -345 -720 -32 -11 -151 -15 -568 -18 l-527 -5 23 64 c14 34 32 80 40 101
l16 37 443 0 c270 0 457 4 480 10 73 21 119 123 234 522 87 302 125 407 166
454 35 39 91 59 141 50 105 -20 131 -85 318 -786 139 -524 153 -573 215 -767
58 -180 74 -210 94 -173 6 12 43 143 81 292 72 282 101 356 147 378 18 8 106
15 252 19 155 5 232 11 248 20 53 29 78 117 207 721 41 195 84 382 95 415 44
131 137 192 233 151z m-2498 -2024 c179 -92 180 -362 3 -453 -117 -60 -268
-16 -333 96 l-27 45 -375 0 c-352 0 -374 1 -369 18 2 9 8 50 11 90 l7 72 368
0 c364 0 369 0 375 21 16 49 85 107 155 130 41 14 142 3 185 -19z m4275 3 c44
-22 97 -71 116 -107 l15 -28 364 0 364 0 5 -32 c3 -18 8 -59 11 -90 l6 -58
-375 0 -375 0 -17 -32 c-88 -176 -340 -182 -441 -11 -24 42 -28 58 -28 128 0
69 4 86 28 127 31 53 79 93 134 114 48 18 147 12 193 -11z m859 -942 c-5 -32
-11 -73 -14 -90 l-6 -33 -3088 0 -3089 0 -11 75 c-6 42 -11 82 -11 90 0 13
391 15 3113 15 l3114 0 -8 -57z m-4247 -512 c214 -55 349 -194 387 -398 l8
-43 -136 0 -136 0 -18 49 c-63 177 -335 231 -486 95 -87 -78 -131 -205 -131
-379 0 -283 117 -449 324 -463 142 -9 250 50 297 163 l22 54 139 3 c109 2 138
0 138 -10 0 -30 -53 -170 -81 -213 -190 -297 -687 -332 -946 -67 -143 146
-209 374 -182 631 29 289 180 492 419 566 85 26 98 28 211 30 66 1 119 -5 171
-18z m1360 -154 c88 -212 428 -1162 428 -1198 0 -5 -63 -9 -149 -9 l-150 0
-41 133 c-22 72 -43 138 -45 145 -4 10 -61 12 -261 10 l-257 -3 -13 -40 c-7
-22 -27 -86 -44 -142 l-32 -103 -149 0 c-82 0 -149 2 -149 5 0 12 420 1191
469 1318 l11 27 162 -2 162 -3 58 -138z m1028 30 c36 -62 160 -274 275 -470
l210 -356 3 469 2 470 140 0 140 0 0 -675 0 -675 -163 0 -163 0 -209 357
c-116 196 -236 402 -267 457 l-58 101 0 -458 0 -457 -145 0 -145 0 0 675 0
675 158 0 157 -1 65 -112z"/>
<path d="M2944 5501 c-65 -28 -83 -110 -35 -163 24 -27 36 -33 71 -33 35 0 47
6 71 33 20 22 29 43 29 67 0 65 -78 120 -136 96z"/>
<path d="M7224 5501 c-65 -28 -83 -110 -35 -163 24 -27 36 -33 71 -33 35 0 47
6 71 33 20 22 29 43 29 67 0 65 -78 120 -136 96z"/>
<path d="M5041 3639 c-46 -145 -86 -270 -88 -276 -4 -10 35 -13 171 -13 97 0
176 3 176 8 0 4 -39 128 -88 276 l-87 268 -84 -263z"/>
</g>
</svg>
